<mxfile host="app.diagrams.net" modified="2023-07-16T14:25:27.323Z" agent="Mozilla/5.0 (Windows NT 10.0; Win64; x64) AppleWebKit/537.36 (KHTML, like Gecko) Chrome/115.0.0.0 Safari/537.36" etag="MUa7GBvFP9PWZ5OtJRW7" version="21.3.5" type="github">
  <diagram name="Page-1" id="UkTYKf_D0qR5qFkEkQw9">
    <mxGraphModel dx="1707" dy="446" grid="1" gridSize="10" guides="1" tooltips="1" connect="1" arrows="1" fold="1" page="1" pageScale="1" pageWidth="827" pageHeight="1169" math="0" shadow="0">
      <root>
        <mxCell id="0" />
        <mxCell id="1" parent="0" />
        <mxCell id="iIohkRdx1PLxUUw2YtB9-1" value="" style="rounded=0;whiteSpace=wrap;html=1;" vertex="1" parent="1">
          <mxGeometry x="-27" y="90" width="680" height="435" as="geometry" />
        </mxCell>
        <mxCell id="iIohkRdx1PLxUUw2YtB9-2" value="" style="rounded=0;whiteSpace=wrap;html=1;" vertex="1" parent="1">
          <mxGeometry x="150" y="110" width="470" height="390" as="geometry" />
        </mxCell>
        <mxCell id="iIohkRdx1PLxUUw2YtB9-3" style="rounded=0;orthogonalLoop=1;jettySize=auto;html=1;exitX=0.5;exitY=0.5;exitDx=0;exitDy=0;exitPerimeter=0;entryX=0;entryY=0.5;entryDx=0;entryDy=0;endArrow=none;endFill=0;" edge="1" parent="1" source="iIohkRdx1PLxUUw2YtB9-4" target="iIohkRdx1PLxUUw2YtB9-5">
          <mxGeometry relative="1" as="geometry" />
        </mxCell>
        <mxCell id="iIohkRdx1PLxUUw2YtB9-4" value="Responsable&amp;nbsp;&lt;br&gt;société" style="shape=umlActor;verticalLabelPosition=bottom;verticalAlign=top;html=1;outlineConnect=0;" vertex="1" parent="1">
          <mxGeometry x="60" y="240" width="30" height="60" as="geometry" />
        </mxCell>
        <mxCell id="iIohkRdx1PLxUUw2YtB9-5" value="Gérer Facture" style="ellipse;whiteSpace=wrap;html=1;" vertex="1" parent="1">
          <mxGeometry x="253" y="149" width="120" height="80" as="geometry" />
        </mxCell>
        <mxCell id="iIohkRdx1PLxUUw2YtB9-6" style="rounded=0;orthogonalLoop=1;jettySize=auto;html=1;exitX=0;exitY=0.5;exitDx=0;exitDy=0;entryX=1;entryY=0.5;entryDx=0;entryDy=0;dashed=1;endArrow=open;endFill=0;" edge="1" parent="1" source="iIohkRdx1PLxUUw2YtB9-8" target="iIohkRdx1PLxUUw2YtB9-5">
          <mxGeometry relative="1" as="geometry" />
        </mxCell>
        <mxCell id="iIohkRdx1PLxUUw2YtB9-7" value="Extend" style="edgeLabel;html=1;align=center;verticalAlign=middle;resizable=0;points=[];" vertex="1" connectable="0" parent="iIohkRdx1PLxUUw2YtB9-6">
          <mxGeometry x="-0.3289" y="1" relative="1" as="geometry">
            <mxPoint as="offset" />
          </mxGeometry>
        </mxCell>
        <mxCell id="iIohkRdx1PLxUUw2YtB9-8" value="Imprimer facture" style="ellipse;whiteSpace=wrap;html=1;" vertex="1" parent="1">
          <mxGeometry x="483" y="119" width="120" height="40" as="geometry" />
        </mxCell>
        <mxCell id="iIohkRdx1PLxUUw2YtB9-9" style="rounded=0;orthogonalLoop=1;jettySize=auto;html=1;exitX=0;exitY=0.5;exitDx=0;exitDy=0;entryX=1;entryY=0.5;entryDx=0;entryDy=0;dashed=1;endArrow=open;endFill=0;" edge="1" parent="1" source="iIohkRdx1PLxUUw2YtB9-11" target="iIohkRdx1PLxUUw2YtB9-5">
          <mxGeometry relative="1" as="geometry">
            <mxPoint x="413" y="169" as="targetPoint" />
          </mxGeometry>
        </mxCell>
        <mxCell id="iIohkRdx1PLxUUw2YtB9-10" value="Extend" style="edgeLabel;html=1;align=center;verticalAlign=middle;resizable=0;points=[];" vertex="1" connectable="0" parent="iIohkRdx1PLxUUw2YtB9-9">
          <mxGeometry x="-0.2725" y="-1" relative="1" as="geometry">
            <mxPoint as="offset" />
          </mxGeometry>
        </mxCell>
        <mxCell id="iIohkRdx1PLxUUw2YtB9-11" value="Exporter facture" style="ellipse;whiteSpace=wrap;html=1;" vertex="1" parent="1">
          <mxGeometry x="483" y="169" width="120" height="40" as="geometry" />
        </mxCell>
        <mxCell id="iIohkRdx1PLxUUw2YtB9-12" style="rounded=0;orthogonalLoop=1;jettySize=auto;html=1;exitX=0;exitY=0.5;exitDx=0;exitDy=0;entryX=1;entryY=0.5;entryDx=0;entryDy=0;dashed=1;endArrow=open;endFill=0;" edge="1" parent="1" source="iIohkRdx1PLxUUw2YtB9-14" target="iIohkRdx1PLxUUw2YtB9-5">
          <mxGeometry relative="1" as="geometry">
            <mxPoint x="413" y="169" as="targetPoint" />
          </mxGeometry>
        </mxCell>
        <mxCell id="iIohkRdx1PLxUUw2YtB9-13" value="Extend" style="edgeLabel;html=1;align=center;verticalAlign=middle;resizable=0;points=[];" vertex="1" connectable="0" parent="iIohkRdx1PLxUUw2YtB9-12">
          <mxGeometry x="-0.3328" y="1" relative="1" as="geometry">
            <mxPoint as="offset" />
          </mxGeometry>
        </mxCell>
        <mxCell id="iIohkRdx1PLxUUw2YtB9-14" value="Consulter facture" style="ellipse;whiteSpace=wrap;html=1;" vertex="1" parent="1">
          <mxGeometry x="483" y="219" width="120" height="40" as="geometry" />
        </mxCell>
        <mxCell id="iIohkRdx1PLxUUw2YtB9-20" value="Passer une commande" style="ellipse;whiteSpace=wrap;html=1;" vertex="1" parent="1">
          <mxGeometry x="325" y="310" width="120" height="40" as="geometry" />
        </mxCell>
        <mxCell id="iIohkRdx1PLxUUw2YtB9-26" style="rounded=0;orthogonalLoop=1;jettySize=auto;html=1;exitX=0.438;exitY=1.075;exitDx=0;exitDy=0;dashed=1;endArrow=open;endFill=0;exitPerimeter=0;entryX=1;entryY=0.5;entryDx=0;entryDy=0;" edge="1" parent="1" source="iIohkRdx1PLxUUw2YtB9-28" target="iIohkRdx1PLxUUw2YtB9-31">
          <mxGeometry relative="1" as="geometry">
            <mxPoint x="460" y="410" as="targetPoint" />
          </mxGeometry>
        </mxCell>
        <mxCell id="iIohkRdx1PLxUUw2YtB9-27" value="Include" style="edgeLabel;html=1;align=center;verticalAlign=middle;resizable=0;points=[];" vertex="1" connectable="0" parent="iIohkRdx1PLxUUw2YtB9-26">
          <mxGeometry x="-0.4338" relative="1" as="geometry">
            <mxPoint as="offset" />
          </mxGeometry>
        </mxCell>
        <mxCell id="iIohkRdx1PLxUUw2YtB9-28" value="Passer bon de livraison" style="ellipse;whiteSpace=wrap;html=1;" vertex="1" parent="1">
          <mxGeometry x="483" y="310" width="130" height="40" as="geometry" />
        </mxCell>
        <mxCell id="iIohkRdx1PLxUUw2YtB9-29" style="rounded=0;orthogonalLoop=1;jettySize=auto;html=1;exitX=0.5;exitY=1;exitDx=0;exitDy=0;entryX=0.5;entryY=0;entryDx=0;entryDy=0;dashed=1;endArrow=open;endFill=0;" edge="1" parent="1" source="iIohkRdx1PLxUUw2YtB9-20" target="iIohkRdx1PLxUUw2YtB9-31">
          <mxGeometry relative="1" as="geometry">
            <mxPoint x="563" y="360" as="targetPoint" />
          </mxGeometry>
        </mxCell>
        <mxCell id="iIohkRdx1PLxUUw2YtB9-30" value="Include" style="edgeLabel;html=1;align=center;verticalAlign=middle;resizable=0;points=[];" vertex="1" connectable="0" parent="iIohkRdx1PLxUUw2YtB9-29">
          <mxGeometry x="-0.4338" relative="1" as="geometry">
            <mxPoint as="offset" />
          </mxGeometry>
        </mxCell>
        <mxCell id="iIohkRdx1PLxUUw2YtB9-31" value="Valider&amp;nbsp;" style="ellipse;whiteSpace=wrap;html=1;" vertex="1" parent="1">
          <mxGeometry x="315" y="420" width="130" height="40" as="geometry" />
        </mxCell>
        <mxCell id="iIohkRdx1PLxUUw2YtB9-56" style="edgeStyle=orthogonalEdgeStyle;rounded=0;orthogonalLoop=1;jettySize=auto;html=1;exitX=0;exitY=1;exitDx=0;exitDy=0;entryX=1;entryY=1;entryDx=0;entryDy=0;dashed=1;endArrow=open;endFill=0;" edge="1" parent="1" source="iIohkRdx1PLxUUw2YtB9-38" target="iIohkRdx1PLxUUw2YtB9-28">
          <mxGeometry relative="1" as="geometry">
            <Array as="points">
              <mxPoint x="168" y="480" />
              <mxPoint x="594" y="480" />
            </Array>
          </mxGeometry>
        </mxCell>
        <mxCell id="iIohkRdx1PLxUUw2YtB9-57" value="Extend" style="edgeLabel;html=1;align=center;verticalAlign=middle;resizable=0;points=[];" vertex="1" connectable="0" parent="iIohkRdx1PLxUUw2YtB9-56">
          <mxGeometry x="0.2613" y="-1" relative="1" as="geometry">
            <mxPoint as="offset" />
          </mxGeometry>
        </mxCell>
        <mxCell id="iIohkRdx1PLxUUw2YtB9-38" value="Passer une devis" style="ellipse;whiteSpace=wrap;html=1;" vertex="1" parent="1">
          <mxGeometry x="150" y="310" width="120" height="40" as="geometry" />
        </mxCell>
        <mxCell id="iIohkRdx1PLxUUw2YtB9-43" style="rounded=0;orthogonalLoop=1;jettySize=auto;html=1;exitX=0.5;exitY=0;exitDx=0;exitDy=0;entryX=0.5;entryY=1;entryDx=0;entryDy=0;dashed=1;endArrow=open;endFill=0;" edge="1" parent="1" source="iIohkRdx1PLxUUw2YtB9-20" target="iIohkRdx1PLxUUw2YtB9-5">
          <mxGeometry relative="1" as="geometry">
            <mxPoint x="383" y="199" as="targetPoint" />
            <mxPoint x="493" y="249" as="sourcePoint" />
          </mxGeometry>
        </mxCell>
        <mxCell id="iIohkRdx1PLxUUw2YtB9-44" value="Extend" style="edgeLabel;html=1;align=center;verticalAlign=middle;resizable=0;points=[];" vertex="1" connectable="0" parent="iIohkRdx1PLxUUw2YtB9-43">
          <mxGeometry x="-0.3328" y="1" relative="1" as="geometry">
            <mxPoint as="offset" />
          </mxGeometry>
        </mxCell>
        <mxCell id="iIohkRdx1PLxUUw2YtB9-45" style="rounded=0;orthogonalLoop=1;jettySize=auto;html=1;exitX=0.5;exitY=0;exitDx=0;exitDy=0;entryX=1;entryY=1;entryDx=0;entryDy=0;dashed=1;endArrow=open;endFill=0;" edge="1" parent="1" source="iIohkRdx1PLxUUw2YtB9-28" target="iIohkRdx1PLxUUw2YtB9-5">
          <mxGeometry relative="1" as="geometry">
            <mxPoint x="393" y="209" as="targetPoint" />
            <mxPoint x="503" y="259" as="sourcePoint" />
          </mxGeometry>
        </mxCell>
        <mxCell id="iIohkRdx1PLxUUw2YtB9-46" value="Extend" style="edgeLabel;html=1;align=center;verticalAlign=middle;resizable=0;points=[];" vertex="1" connectable="0" parent="iIohkRdx1PLxUUw2YtB9-45">
          <mxGeometry x="-0.3328" y="1" relative="1" as="geometry">
            <mxPoint as="offset" />
          </mxGeometry>
        </mxCell>
        <mxCell id="iIohkRdx1PLxUUw2YtB9-47" style="rounded=0;orthogonalLoop=1;jettySize=auto;html=1;exitX=0.5;exitY=0;exitDx=0;exitDy=0;entryX=0;entryY=1;entryDx=0;entryDy=0;dashed=1;endArrow=open;endFill=0;" edge="1" parent="1" source="iIohkRdx1PLxUUw2YtB9-38" target="iIohkRdx1PLxUUw2YtB9-5">
          <mxGeometry relative="1" as="geometry">
            <mxPoint x="403" y="219" as="targetPoint" />
            <mxPoint x="513" y="269" as="sourcePoint" />
          </mxGeometry>
        </mxCell>
        <mxCell id="iIohkRdx1PLxUUw2YtB9-48" value="Extend" style="edgeLabel;html=1;align=center;verticalAlign=middle;resizable=0;points=[];" vertex="1" connectable="0" parent="iIohkRdx1PLxUUw2YtB9-47">
          <mxGeometry x="-0.3328" y="1" relative="1" as="geometry">
            <mxPoint as="offset" />
          </mxGeometry>
        </mxCell>
        <mxCell id="iIohkRdx1PLxUUw2YtB9-49" style="rounded=0;orthogonalLoop=1;jettySize=auto;html=1;exitX=0.5;exitY=1;exitDx=0;exitDy=0;entryX=0;entryY=0.5;entryDx=0;entryDy=0;dashed=1;endArrow=open;endFill=0;" edge="1" parent="1" source="iIohkRdx1PLxUUw2YtB9-38" target="iIohkRdx1PLxUUw2YtB9-31">
          <mxGeometry relative="1" as="geometry">
            <mxPoint x="390" y="430" as="targetPoint" />
            <mxPoint x="390" y="360" as="sourcePoint" />
          </mxGeometry>
        </mxCell>
        <mxCell id="iIohkRdx1PLxUUw2YtB9-50" value="Include" style="edgeLabel;html=1;align=center;verticalAlign=middle;resizable=0;points=[];" vertex="1" connectable="0" parent="iIohkRdx1PLxUUw2YtB9-49">
          <mxGeometry x="-0.4338" relative="1" as="geometry">
            <mxPoint as="offset" />
          </mxGeometry>
        </mxCell>
        <mxCell id="iIohkRdx1PLxUUw2YtB9-51" style="rounded=0;orthogonalLoop=1;jettySize=auto;html=1;exitX=1;exitY=0;exitDx=0;exitDy=0;dashed=1;endArrow=open;endFill=0;entryX=0;entryY=0;entryDx=0;entryDy=0;" edge="1" parent="1" source="iIohkRdx1PLxUUw2YtB9-38" target="iIohkRdx1PLxUUw2YtB9-20">
          <mxGeometry relative="1" as="geometry">
            <mxPoint x="325" y="330" as="targetPoint" />
            <mxPoint x="230" y="320" as="sourcePoint" />
          </mxGeometry>
        </mxCell>
        <mxCell id="iIohkRdx1PLxUUw2YtB9-52" value="Extend" style="edgeLabel;html=1;align=center;verticalAlign=middle;resizable=0;points=[];" vertex="1" connectable="0" parent="iIohkRdx1PLxUUw2YtB9-51">
          <mxGeometry x="-0.3328" y="1" relative="1" as="geometry">
            <mxPoint as="offset" />
          </mxGeometry>
        </mxCell>
        <mxCell id="iIohkRdx1PLxUUw2YtB9-54" style="rounded=0;orthogonalLoop=1;jettySize=auto;html=1;exitX=1;exitY=0;exitDx=0;exitDy=0;entryX=0;entryY=0;entryDx=0;entryDy=0;dashed=1;endArrow=open;endFill=0;" edge="1" parent="1" source="iIohkRdx1PLxUUw2YtB9-20" target="iIohkRdx1PLxUUw2YtB9-28">
          <mxGeometry relative="1" as="geometry">
            <mxPoint x="281" y="227" as="targetPoint" />
            <mxPoint x="220" y="320" as="sourcePoint" />
          </mxGeometry>
        </mxCell>
        <mxCell id="iIohkRdx1PLxUUw2YtB9-55" value="Extend" style="edgeLabel;html=1;align=center;verticalAlign=middle;resizable=0;points=[];" vertex="1" connectable="0" parent="iIohkRdx1PLxUUw2YtB9-54">
          <mxGeometry x="-0.3328" y="1" relative="1" as="geometry">
            <mxPoint as="offset" />
          </mxGeometry>
        </mxCell>
      </root>
    </mxGraphModel>
  </diagram>
</mxfile>
